<?xml version="1.0" encoding="utf-8" standalone="no"?>
<!DOCTYPE svg PUBLIC "-//W3C//DTD SVG 1.1//EN"
  "http://www.w3.org/Graphics/SVG/1.1/DTD/svg11.dtd">
<!-- Created with matplotlib (http://matplotlib.org/) -->
<svg height="288pt" version="1.1" viewBox="0 0 432 288" width="432pt" xmlns="http://www.w3.org/2000/svg" xmlns:xlink="http://www.w3.org/1999/xlink">
 <defs>
  <style type="text/css">
*{stroke-linecap:butt;stroke-linejoin:round;}
  </style>
 </defs>
 <g id="figure_1">
  <g id="patch_1">
   <path d="
M0 288
L432 288
L432 0
L0 0
z
" style="fill:#ffffff;"/>
  </g>
  <g id="axes_1">
   <g id="patch_2">
    <path d="
M54 252
L388.8 252
L388.8 28.8
L54 28.8
z
" style="fill:#ffffff;"/>
   </g>
   <g id="PathCollection_1">
    <defs>
     <path d="
M0 3.16228
C0.838646 3.16228 1.64306 2.82908 2.23607 2.23607
C2.82908 1.64306 3.16228 0.838646 3.16228 0
C3.16228 -0.838646 2.82908 -1.64306 2.23607 -2.23607
C1.64306 -2.82908 0.838646 -3.16228 0 -3.16228
C-0.838646 -3.16228 -1.64306 -2.82908 -2.23607 -2.23607
C-2.82908 -1.64306 -3.16228 -0.838646 -3.16228 0
C-3.16228 0.838646 -2.82908 1.64306 -2.23607 2.23607
C-1.64306 2.82908 -0.838646 3.16228 0 3.16228
z
" id="meebcb27655" style="stroke:#000000;stroke-opacity:0.7;"/>
    </defs>
    <g clip-path="url(#p124b8dd147)">
     <use style="fill:#0000ff;fill-opacity:0.7;stroke:#000000;stroke-opacity:0.7;" x="129.6" xlink:href="#meebcb27655" y="208.993170732"/>
     <use style="fill:#0000ff;fill-opacity:0.7;stroke:#000000;stroke-opacity:0.7;" x="243.0" xlink:href="#meebcb27655" y="88.6829268293"/>
     <use style="fill:#0000ff;fill-opacity:0.7;stroke:#000000;stroke-opacity:0.7;" x="248.4" xlink:href="#meebcb27655" y="88.6829268293"/>
     <use style="fill:#0000ff;fill-opacity:0.7;stroke:#000000;stroke-opacity:0.7;" x="253.8" xlink:href="#meebcb27655" y="88.6829268293"/>
     <use style="fill:#0000ff;fill-opacity:0.7;stroke:#000000;stroke-opacity:0.7;" x="259.2" xlink:href="#meebcb27655" y="69.6292682927"/>
     <use style="fill:#0000ff;fill-opacity:0.7;stroke:#000000;stroke-opacity:0.7;" x="264.6" xlink:href="#meebcb27655" y="66.3629268293"/>
     <use style="fill:#0000ff;fill-opacity:0.7;stroke:#000000;stroke-opacity:0.7;" x="270.0" xlink:href="#meebcb27655" y="66.3629268293"/>
     <use style="fill:#0000ff;fill-opacity:0.7;stroke:#000000;stroke-opacity:0.7;" x="275.4" xlink:href="#meebcb27655" y="65.8185365854"/>
     <use style="fill:#0000ff;fill-opacity:0.7;stroke:#000000;stroke-opacity:0.7;" x="280.8" xlink:href="#meebcb27655" y="65.8185365854"/>
     <use style="fill:#0000ff;fill-opacity:0.7;stroke:#000000;stroke-opacity:0.7;" x="286.2" xlink:href="#meebcb27655" y="65.8185365854"/>
     <use style="fill:#0000ff;fill-opacity:0.7;stroke:#000000;stroke-opacity:0.7;" x="291.6" xlink:href="#meebcb27655" y="65.2741463415"/>
     <use style="fill:#0000ff;fill-opacity:0.7;stroke:#000000;stroke-opacity:0.7;" x="297.0" xlink:href="#meebcb27655" y="65.2741463415"/>
     <use style="fill:#0000ff;fill-opacity:0.7;stroke:#000000;stroke-opacity:0.7;" x="302.4" xlink:href="#meebcb27655" y="65.2741463415"/>
     <use style="fill:#0000ff;fill-opacity:0.7;stroke:#000000;stroke-opacity:0.7;" x="307.8" xlink:href="#meebcb27655" y="65.2741463415"/>
     <use style="fill:#0000ff;fill-opacity:0.7;stroke:#000000;stroke-opacity:0.7;" x="313.2" xlink:href="#meebcb27655" y="65.2741463415"/>
     <use style="fill:#0000ff;fill-opacity:0.7;stroke:#000000;stroke-opacity:0.7;" x="318.6" xlink:href="#meebcb27655" y="65.2741463415"/>
     <use style="fill:#0000ff;fill-opacity:0.7;stroke:#000000;stroke-opacity:0.7;" x="324.0" xlink:href="#meebcb27655" y="65.2741463415"/>
     <use style="fill:#0000ff;fill-opacity:0.7;stroke:#000000;stroke-opacity:0.7;" x="329.4" xlink:href="#meebcb27655" y="64.7297560976"/>
     <use style="fill:#0000ff;fill-opacity:0.7;stroke:#000000;stroke-opacity:0.7;" x="334.8" xlink:href="#meebcb27655" y="49.4868292683"/>
     <use style="fill:#0000ff;fill-opacity:0.7;stroke:#000000;stroke-opacity:0.7;" x="340.2" xlink:href="#meebcb27655" y="48.9424390244"/>
     <use style="fill:#0000ff;fill-opacity:0.7;stroke:#000000;stroke-opacity:0.7;" x="345.6" xlink:href="#meebcb27655" y="34.243902439"/>
     <use style="fill:#0000ff;fill-opacity:0.7;stroke:#000000;stroke-opacity:0.7;" x="351.0" xlink:href="#meebcb27655" y="34.243902439"/>
     <use style="fill:#0000ff;fill-opacity:0.7;stroke:#000000;stroke-opacity:0.7;" x="356.4" xlink:href="#meebcb27655" y="34.243902439"/>
     <use style="fill:#0000ff;fill-opacity:0.7;stroke:#000000;stroke-opacity:0.7;" x="361.8" xlink:href="#meebcb27655" y="34.243902439"/>
     <use style="fill:#0000ff;fill-opacity:0.7;stroke:#000000;stroke-opacity:0.7;" x="367.2" xlink:href="#meebcb27655" y="34.243902439"/>
     <use style="fill:#0000ff;fill-opacity:0.7;stroke:#000000;stroke-opacity:0.7;" x="372.6" xlink:href="#meebcb27655" y="34.243902439"/>
     <use style="fill:#0000ff;fill-opacity:0.7;stroke:#000000;stroke-opacity:0.7;" x="378.0" xlink:href="#meebcb27655" y="34.243902439"/>
    </g>
   </g>
   <g id="PathCollection_2">
    <defs>
     <path d="
M0 3.16228
C0.838646 3.16228 1.64306 2.82908 2.23607 2.23607
C2.82908 1.64306 3.16228 0.838646 3.16228 0
C3.16228 -0.838646 2.82908 -1.64306 2.23607 -2.23607
C1.64306 -2.82908 0.838646 -3.16228 0 -3.16228
C-0.838646 -3.16228 -1.64306 -2.82908 -2.23607 -2.23607
C-2.82908 -1.64306 -3.16228 -0.838646 -3.16228 0
C-3.16228 0.838646 -2.82908 1.64306 -2.23607 2.23607
C-1.64306 2.82908 -0.838646 3.16228 0 3.16228
z
" id="m50a16b9f75" style="stroke:#000000;stroke-opacity:0.5;"/>
    </defs>
    <g clip-path="url(#p124b8dd147)">
     <use style="fill:#ffffff;fill-opacity:0.5;stroke:#000000;stroke-opacity:0.5;" x="59.4" xlink:href="#m50a16b9f75" y="238.390243902"/>
     <use style="fill:#ffffff;fill-opacity:0.5;stroke:#000000;stroke-opacity:0.5;" x="64.8" xlink:href="#m50a16b9f75" y="236.212682927"/>
     <use style="fill:#ffffff;fill-opacity:0.5;stroke:#000000;stroke-opacity:0.5;" x="70.2" xlink:href="#m50a16b9f75" y="236.212682927"/>
     <use style="fill:#ffffff;fill-opacity:0.5;stroke:#000000;stroke-opacity:0.5;" x="75.6" xlink:href="#m50a16b9f75" y="225.869268293"/>
     <use style="fill:#ffffff;fill-opacity:0.5;stroke:#000000;stroke-opacity:0.5;" x="81.0" xlink:href="#m50a16b9f75" y="224.780487805"/>
     <use style="fill:#ffffff;fill-opacity:0.5;stroke:#000000;stroke-opacity:0.5;" x="86.4" xlink:href="#m50a16b9f75" y="219.88097561"/>
     <use style="fill:#ffffff;fill-opacity:0.5;stroke:#000000;stroke-opacity:0.5;" x="91.8" xlink:href="#m50a16b9f75" y="218.247804878"/>
     <use style="fill:#ffffff;fill-opacity:0.5;stroke:#000000;stroke-opacity:0.5;" x="97.2" xlink:href="#m50a16b9f75" y="215.525853659"/>
     <use style="fill:#ffffff;fill-opacity:0.5;stroke:#000000;stroke-opacity:0.5;" x="102.6" xlink:href="#m50a16b9f75" y="213.348292683"/>
     <use style="fill:#ffffff;fill-opacity:0.5;stroke:#000000;stroke-opacity:0.5;" x="108.0" xlink:href="#m50a16b9f75" y="212.803902439"/>
     <use style="fill:#ffffff;fill-opacity:0.5;stroke:#000000;stroke-opacity:0.5;" x="113.4" xlink:href="#m50a16b9f75" y="211.170731707"/>
     <use style="fill:#ffffff;fill-opacity:0.5;stroke:#000000;stroke-opacity:0.5;" x="118.8" xlink:href="#m50a16b9f75" y="210.626341463"/>
     <use style="fill:#ffffff;fill-opacity:0.5;stroke:#000000;stroke-opacity:0.5;" x="124.2" xlink:href="#m50a16b9f75" y="210.626341463"/>
     <use style="fill:#ffffff;fill-opacity:0.5;stroke:#000000;stroke-opacity:0.5;" x="135.0" xlink:href="#m50a16b9f75" y="207.36"/>
     <use style="fill:#ffffff;fill-opacity:0.5;stroke:#000000;stroke-opacity:0.5;" x="140.4" xlink:href="#m50a16b9f75" y="206.815609756"/>
     <use style="fill:#ffffff;fill-opacity:0.5;stroke:#000000;stroke-opacity:0.5;" x="145.8" xlink:href="#m50a16b9f75" y="206.815609756"/>
     <use style="fill:#ffffff;fill-opacity:0.5;stroke:#000000;stroke-opacity:0.5;" x="151.2" xlink:href="#m50a16b9f75" y="203.549268293"/>
     <use style="fill:#ffffff;fill-opacity:0.5;stroke:#000000;stroke-opacity:0.5;" x="156.6" xlink:href="#m50a16b9f75" y="203.004878049"/>
     <use style="fill:#ffffff;fill-opacity:0.5;stroke:#000000;stroke-opacity:0.5;" x="162.0" xlink:href="#m50a16b9f75" y="202.460487805"/>
     <use style="fill:#ffffff;fill-opacity:0.5;stroke:#000000;stroke-opacity:0.5;" x="167.4" xlink:href="#m50a16b9f75" y="201.371707317"/>
     <use style="fill:#ffffff;fill-opacity:0.5;stroke:#000000;stroke-opacity:0.5;" x="172.8" xlink:href="#m50a16b9f75" y="201.371707317"/>
     <use style="fill:#ffffff;fill-opacity:0.5;stroke:#000000;stroke-opacity:0.5;" x="178.2" xlink:href="#m50a16b9f75" y="200.827317073"/>
     <use style="fill:#ffffff;fill-opacity:0.5;stroke:#000000;stroke-opacity:0.5;" x="183.6" xlink:href="#m50a16b9f75" y="199.194146341"/>
     <use style="fill:#ffffff;fill-opacity:0.5;stroke:#000000;stroke-opacity:0.5;" x="189.0" xlink:href="#m50a16b9f75" y="198.649756098"/>
     <use style="fill:#ffffff;fill-opacity:0.5;stroke:#000000;stroke-opacity:0.5;" x="194.4" xlink:href="#m50a16b9f75" y="198.105365854"/>
     <use style="fill:#ffffff;fill-opacity:0.5;stroke:#000000;stroke-opacity:0.5;" x="199.8" xlink:href="#m50a16b9f75" y="197.56097561"/>
     <use style="fill:#ffffff;fill-opacity:0.5;stroke:#000000;stroke-opacity:0.5;" x="205.2" xlink:href="#m50a16b9f75" y="197.016585366"/>
     <use style="fill:#ffffff;fill-opacity:0.5;stroke:#000000;stroke-opacity:0.5;" x="210.6" xlink:href="#m50a16b9f75" y="193.750243902"/>
     <use style="fill:#ffffff;fill-opacity:0.5;stroke:#000000;stroke-opacity:0.5;" x="216.0" xlink:href="#m50a16b9f75" y="191.028292683"/>
     <use style="fill:#ffffff;fill-opacity:0.5;stroke:#000000;stroke-opacity:0.5;" x="221.4" xlink:href="#m50a16b9f75" y="188.306341463"/>
     <use style="fill:#ffffff;fill-opacity:0.5;stroke:#000000;stroke-opacity:0.5;" x="226.8" xlink:href="#m50a16b9f75" y="187.217560976"/>
     <use style="fill:#ffffff;fill-opacity:0.5;stroke:#000000;stroke-opacity:0.5;" x="232.2" xlink:href="#m50a16b9f75" y="119.168780488"/>
     <use style="fill:#ffffff;fill-opacity:0.5;stroke:#000000;stroke-opacity:0.5;" x="237.6" xlink:href="#m50a16b9f75" y="118.08"/>
    </g>
   </g>
   <g id="patch_3">
    <path d="
M54 28.8
L388.8 28.8" style="fill:none;stroke:#000000;stroke-linecap:square;stroke-linejoin:miter;"/>
   </g>
   <g id="patch_4">
    <path d="
M388.8 252
L388.8 28.8" style="fill:none;stroke:#000000;stroke-linecap:square;stroke-linejoin:miter;"/>
   </g>
   <g id="patch_5">
    <path d="
M54 252
L388.8 252" style="fill:none;stroke:#000000;stroke-linecap:square;stroke-linejoin:miter;"/>
   </g>
   <g id="patch_6">
    <path d="
M54 252
L54 28.8" style="fill:none;stroke:#000000;stroke-linecap:square;stroke-linejoin:miter;"/>
   </g>
   <g id="matplotlib.axis_1">
    <g id="xtick_1">
     <g id="line2d_1">
      <defs>
       <path d="
M0 0
L0 -4" id="m93b0483c22" style="stroke:#000000;stroke-width:0.5;"/>
      </defs>
      <g>
       <use style="stroke:#000000;stroke-width:0.5;" x="59.4" xlink:href="#m93b0483c22" y="252.0"/>
      </g>
     </g>
     <g id="line2d_2">
      <defs>
       <path d="
M0 0
L0 4" id="m741efc42ff" style="stroke:#000000;stroke-width:0.5;"/>
      </defs>
      <g>
       <use style="stroke:#000000;stroke-width:0.5;" x="59.4" xlink:href="#m741efc42ff" y="28.8"/>
      </g>
     </g>
     <g id="text_1">
      <!-- 0 -->
      <defs>
       <path d="
M31.7812 66.4062
Q24.1719 66.4062 20.3281 58.9062
Q16.5 51.4219 16.5 36.375
Q16.5 21.3906 20.3281 13.8906
Q24.1719 6.39062 31.7812 6.39062
Q39.4531 6.39062 43.2812 13.8906
Q47.125 21.3906 47.125 36.375
Q47.125 51.4219 43.2812 58.9062
Q39.4531 66.4062 31.7812 66.4062
M31.7812 74.2188
Q44.0469 74.2188 50.5156 64.5156
Q56.9844 54.8281 56.9844 36.375
Q56.9844 17.9688 50.5156 8.26562
Q44.0469 -1.42188 31.7812 -1.42188
Q19.5312 -1.42188 13.0625 8.26562
Q6.59375 17.9688 6.59375 36.375
Q6.59375 54.8281 13.0625 64.5156
Q19.5312 74.2188 31.7812 74.2188" id="BitstreamVeraSans-Roman-30"/>
      </defs>
      <g transform="translate(56.88046875 263.5984375)scale(0.1 -0.1)">
       <use xlink:href="#BitstreamVeraSans-Roman-30"/>
      </g>
     </g>
    </g>
    <g id="xtick_2">
     <g id="line2d_3">
      <g>
       <use style="stroke:#000000;stroke-width:0.5;" x="113.4" xlink:href="#m93b0483c22" y="252.0"/>
      </g>
     </g>
     <g id="line2d_4">
      <g>
       <use style="stroke:#000000;stroke-width:0.5;" x="113.4" xlink:href="#m741efc42ff" y="28.8"/>
      </g>
     </g>
     <g id="text_2">
      <!-- 10 -->
      <defs>
       <path d="
M12.4062 8.29688
L28.5156 8.29688
L28.5156 63.9219
L10.9844 60.4062
L10.9844 69.3906
L28.4219 72.9062
L38.2812 72.9062
L38.2812 8.29688
L54.3906 8.29688
L54.3906 0
L12.4062 0
z
" id="BitstreamVeraSans-Roman-31"/>
      </defs>
      <g transform="translate(107.91875 263.5984375)scale(0.1 -0.1)">
       <use xlink:href="#BitstreamVeraSans-Roman-31"/>
       <use x="63.623046875" xlink:href="#BitstreamVeraSans-Roman-30"/>
      </g>
     </g>
    </g>
    <g id="xtick_3">
     <g id="line2d_5">
      <g>
       <use style="stroke:#000000;stroke-width:0.5;" x="167.4" xlink:href="#m93b0483c22" y="252.0"/>
      </g>
     </g>
     <g id="line2d_6">
      <g>
       <use style="stroke:#000000;stroke-width:0.5;" x="167.4" xlink:href="#m741efc42ff" y="28.8"/>
      </g>
     </g>
     <g id="text_3">
      <!-- 20 -->
      <defs>
       <path d="
M19.1875 8.29688
L53.6094 8.29688
L53.6094 0
L7.32812 0
L7.32812 8.29688
Q12.9375 14.1094 22.625 23.8906
Q32.3281 33.6875 34.8125 36.5312
Q39.5469 41.8438 41.4219 45.5312
Q43.3125 49.2188 43.3125 52.7812
Q43.3125 58.5938 39.2344 62.25
Q35.1562 65.9219 28.6094 65.9219
Q23.9688 65.9219 18.8125 64.3125
Q13.6719 62.7031 7.8125 59.4219
L7.8125 69.3906
Q13.7656 71.7812 18.9375 73
Q24.125 74.2188 28.4219 74.2188
Q39.75 74.2188 46.4844 68.5469
Q53.2188 62.8906 53.2188 53.4219
Q53.2188 48.9219 51.5312 44.8906
Q49.8594 40.875 45.4062 35.4062
Q44.1875 33.9844 37.6406 27.2188
Q31.1094 20.4531 19.1875 8.29688" id="BitstreamVeraSans-Roman-32"/>
      </defs>
      <g transform="translate(161.7359375 263.5984375)scale(0.1 -0.1)">
       <use xlink:href="#BitstreamVeraSans-Roman-32"/>
       <use x="63.623046875" xlink:href="#BitstreamVeraSans-Roman-30"/>
      </g>
     </g>
    </g>
    <g id="xtick_4">
     <g id="line2d_7">
      <g>
       <use style="stroke:#000000;stroke-width:0.5;" x="221.4" xlink:href="#m93b0483c22" y="252.0"/>
      </g>
     </g>
     <g id="line2d_8">
      <g>
       <use style="stroke:#000000;stroke-width:0.5;" x="221.4" xlink:href="#m741efc42ff" y="28.8"/>
      </g>
     </g>
     <g id="text_4">
      <!-- 30 -->
      <defs>
       <path d="
M40.5781 39.3125
Q47.6562 37.7969 51.625 33
Q55.6094 28.2188 55.6094 21.1875
Q55.6094 10.4062 48.1875 4.48438
Q40.7656 -1.42188 27.0938 -1.42188
Q22.5156 -1.42188 17.6562 -0.515625
Q12.7969 0.390625 7.625 2.20312
L7.625 11.7188
Q11.7188 9.32812 16.5938 8.10938
Q21.4844 6.89062 26.8125 6.89062
Q36.0781 6.89062 40.9375 10.5469
Q45.7969 14.2031 45.7969 21.1875
Q45.7969 27.6406 41.2812 31.2656
Q36.7656 34.9062 28.7188 34.9062
L20.2188 34.9062
L20.2188 43.0156
L29.1094 43.0156
Q36.375 43.0156 40.2344 45.9219
Q44.0938 48.8281 44.0938 54.2969
Q44.0938 59.9062 40.1094 62.9062
Q36.1406 65.9219 28.7188 65.9219
Q24.6562 65.9219 20.0156 65.0312
Q15.375 64.1562 9.8125 62.3125
L9.8125 71.0938
Q15.4375 72.6562 20.3438 73.4375
Q25.25 74.2188 29.5938 74.2188
Q40.8281 74.2188 47.3594 69.1094
Q53.9062 64.0156 53.9062 55.3281
Q53.9062 49.2656 50.4375 45.0938
Q46.9688 40.9219 40.5781 39.3125" id="BitstreamVeraSans-Roman-33"/>
      </defs>
      <g transform="translate(215.75078125 263.5984375)scale(0.1 -0.1)">
       <use xlink:href="#BitstreamVeraSans-Roman-33"/>
       <use x="63.623046875" xlink:href="#BitstreamVeraSans-Roman-30"/>
      </g>
     </g>
    </g>
    <g id="xtick_5">
     <g id="line2d_9">
      <g>
       <use style="stroke:#000000;stroke-width:0.5;" x="275.4" xlink:href="#m93b0483c22" y="252.0"/>
      </g>
     </g>
     <g id="line2d_10">
      <g>
       <use style="stroke:#000000;stroke-width:0.5;" x="275.4" xlink:href="#m741efc42ff" y="28.8"/>
      </g>
     </g>
     <g id="text_5">
      <!-- 40 -->
      <defs>
       <path d="
M37.7969 64.3125
L12.8906 25.3906
L37.7969 25.3906
z

M35.2031 72.9062
L47.6094 72.9062
L47.6094 25.3906
L58.0156 25.3906
L58.0156 17.1875
L47.6094 17.1875
L47.6094 0
L37.7969 0
L37.7969 17.1875
L4.89062 17.1875
L4.89062 26.7031
z
" id="BitstreamVeraSans-Roman-34"/>
      </defs>
      <g transform="translate(269.6140625 263.5984375)scale(0.1 -0.1)">
       <use xlink:href="#BitstreamVeraSans-Roman-34"/>
       <use x="63.623046875" xlink:href="#BitstreamVeraSans-Roman-30"/>
      </g>
     </g>
    </g>
    <g id="xtick_6">
     <g id="line2d_11">
      <g>
       <use style="stroke:#000000;stroke-width:0.5;" x="329.4" xlink:href="#m93b0483c22" y="252.0"/>
      </g>
     </g>
     <g id="line2d_12">
      <g>
       <use style="stroke:#000000;stroke-width:0.5;" x="329.4" xlink:href="#m741efc42ff" y="28.8"/>
      </g>
     </g>
     <g id="text_6">
      <!-- 50 -->
      <defs>
       <path d="
M10.7969 72.9062
L49.5156 72.9062
L49.5156 64.5938
L19.8281 64.5938
L19.8281 46.7344
Q21.9688 47.4688 24.1094 47.8281
Q26.2656 48.1875 28.4219 48.1875
Q40.625 48.1875 47.75 41.5
Q54.8906 34.8125 54.8906 23.3906
Q54.8906 11.625 47.5625 5.09375
Q40.2344 -1.42188 26.9062 -1.42188
Q22.3125 -1.42188 17.5469 -0.640625
Q12.7969 0.140625 7.71875 1.70312
L7.71875 11.625
Q12.1094 9.23438 16.7969 8.0625
Q21.4844 6.89062 26.7031 6.89062
Q35.1562 6.89062 40.0781 11.3281
Q45.0156 15.7656 45.0156 23.3906
Q45.0156 31 40.0781 35.4375
Q35.1562 39.8906 26.7031 39.8906
Q22.75 39.8906 18.8125 39.0156
Q14.8906 38.1406 10.7969 36.2812
z
" id="BitstreamVeraSans-Roman-35"/>
      </defs>
      <g transform="translate(323.75546875 263.5984375)scale(0.1 -0.1)">
       <use xlink:href="#BitstreamVeraSans-Roman-35"/>
       <use x="63.623046875" xlink:href="#BitstreamVeraSans-Roman-30"/>
      </g>
     </g>
    </g>
    <g id="xtick_7">
     <g id="line2d_13">
      <g>
       <use style="stroke:#000000;stroke-width:0.5;" x="383.4" xlink:href="#m93b0483c22" y="252.0"/>
      </g>
     </g>
     <g id="line2d_14">
      <g>
       <use style="stroke:#000000;stroke-width:0.5;" x="383.4" xlink:href="#m741efc42ff" y="28.8"/>
      </g>
     </g>
     <g id="text_7">
      <!-- 60 -->
      <defs>
       <path d="
M33.0156 40.375
Q26.375 40.375 22.4844 35.8281
Q18.6094 31.2969 18.6094 23.3906
Q18.6094 15.5312 22.4844 10.9531
Q26.375 6.39062 33.0156 6.39062
Q39.6562 6.39062 43.5312 10.9531
Q47.4062 15.5312 47.4062 23.3906
Q47.4062 31.2969 43.5312 35.8281
Q39.6562 40.375 33.0156 40.375
M52.5938 71.2969
L52.5938 62.3125
Q48.875 64.0625 45.0938 64.9844
Q41.3125 65.9219 37.5938 65.9219
Q27.8281 65.9219 22.6719 59.3281
Q17.5312 52.7344 16.7969 39.4062
Q19.6719 43.6562 24.0156 45.9219
Q28.375 48.1875 33.5938 48.1875
Q44.5781 48.1875 50.9531 41.5156
Q57.3281 34.8594 57.3281 23.3906
Q57.3281 12.1562 50.6875 5.35938
Q44.0469 -1.42188 33.0156 -1.42188
Q20.3594 -1.42188 13.6719 8.26562
Q6.98438 17.9688 6.98438 36.375
Q6.98438 53.6562 15.1875 63.9375
Q23.3906 74.2188 37.2031 74.2188
Q40.9219 74.2188 44.7031 73.4844
Q48.4844 72.75 52.5938 71.2969" id="BitstreamVeraSans-Roman-36"/>
      </defs>
      <g transform="translate(377.71875 263.5984375)scale(0.1 -0.1)">
       <use xlink:href="#BitstreamVeraSans-Roman-36"/>
       <use x="63.623046875" xlink:href="#BitstreamVeraSans-Roman-30"/>
      </g>
     </g>
    </g>
    <g id="text_8">
     <!-- SpMAX4_Bh(s) rank -->
     <defs>
      <path id="BitstreamVeraSans-Roman-20"/>
      <path d="
M9.8125 72.9062
L24.5156 72.9062
L43.1094 23.2969
L61.8125 72.9062
L76.5156 72.9062
L76.5156 0
L66.8906 0
L66.8906 64.0156
L48.0938 14.0156
L38.1875 14.0156
L19.3906 64.0156
L19.3906 0
L9.8125 0
z
" id="BitstreamVeraSans-Roman-4d"/>
      <path d="
M50.9844 -16.6094
L50.9844 -23.5781
L-0.984375 -23.5781
L-0.984375 -16.6094
z
" id="BitstreamVeraSans-Roman-5f"/>
      <path d="
M8.01562 75.875
L15.8281 75.875
Q23.1406 64.3594 26.7812 53.3125
Q30.4219 42.2812 30.4219 31.3906
Q30.4219 20.4531 26.7812 9.375
Q23.1406 -1.70312 15.8281 -13.1875
L8.01562 -13.1875
Q14.5 -2 17.7031 9.0625
Q20.9062 20.125 20.9062 31.3906
Q20.9062 42.6719 17.7031 53.6562
Q14.5 64.6562 8.01562 75.875" id="BitstreamVeraSans-Roman-29"/>
      <path d="
M31 75.875
Q24.4688 64.6562 21.2812 53.6562
Q18.1094 42.6719 18.1094 31.3906
Q18.1094 20.125 21.3125 9.0625
Q24.5156 -2 31 -13.1875
L23.1875 -13.1875
Q15.875 -1.70312 12.2344 9.375
Q8.59375 20.4531 8.59375 31.3906
Q8.59375 42.2812 12.2031 53.3125
Q15.8281 64.3594 23.1875 75.875
z
" id="BitstreamVeraSans-Roman-28"/>
      <path d="
M9.07812 75.9844
L18.1094 75.9844
L18.1094 31.1094
L44.9219 54.6875
L56.3906 54.6875
L27.3906 29.1094
L57.625 0
L45.9062 0
L18.1094 26.7031
L18.1094 0
L9.07812 0
z
" id="BitstreamVeraSans-Roman-6b"/>
      <path d="
M54.8906 33.0156
L54.8906 0
L45.9062 0
L45.9062 32.7188
Q45.9062 40.4844 42.875 44.3281
Q39.8438 48.1875 33.7969 48.1875
Q26.5156 48.1875 22.3125 43.5469
Q18.1094 38.9219 18.1094 30.9062
L18.1094 0
L9.07812 0
L9.07812 54.6875
L18.1094 54.6875
L18.1094 46.1875
Q21.3438 51.125 25.7031 53.5625
Q30.0781 56 35.7969 56
Q45.2188 56 50.0469 50.1719
Q54.8906 44.3438 54.8906 33.0156" id="BitstreamVeraSans-Roman-6e"/>
      <path d="
M53.5156 70.5156
L53.5156 60.8906
Q47.9062 63.5781 42.9219 64.8906
Q37.9375 66.2188 33.2969 66.2188
Q25.25 66.2188 20.875 63.0938
Q16.5 59.9688 16.5 54.2031
Q16.5 49.3594 19.4062 46.8906
Q22.3125 44.4375 30.4219 42.9219
L36.375 41.7031
Q47.4062 39.5938 52.6562 34.2969
Q57.9062 29 57.9062 20.125
Q57.9062 9.51562 50.7969 4.04688
Q43.7031 -1.42188 29.9844 -1.42188
Q24.8125 -1.42188 18.9688 -0.25
Q13.1406 0.921875 6.89062 3.21875
L6.89062 13.375
Q12.8906 10.0156 18.6562 8.29688
Q24.4219 6.59375 29.9844 6.59375
Q38.4219 6.59375 43.0156 9.90625
Q47.6094 13.2344 47.6094 19.3906
Q47.6094 24.75 44.3125 27.7812
Q41.0156 30.8125 33.5 32.3281
L27.4844 33.5
Q16.4531 35.6875 11.5156 40.375
Q6.59375 45.0625 6.59375 53.4219
Q6.59375 63.0938 13.4062 68.6562
Q20.2188 74.2188 32.1719 74.2188
Q37.3125 74.2188 42.625 73.2812
Q47.9531 72.3594 53.5156 70.5156" id="BitstreamVeraSans-Roman-53"/>
      <path d="
M19.6719 34.8125
L19.6719 8.10938
L35.5 8.10938
Q43.4531 8.10938 47.2812 11.4062
Q51.125 14.7031 51.125 21.4844
Q51.125 28.3281 47.2812 31.5625
Q43.4531 34.8125 35.5 34.8125
z

M19.6719 64.7969
L19.6719 42.8281
L34.2812 42.8281
Q41.5 42.8281 45.0312 45.5312
Q48.5781 48.25 48.5781 53.8125
Q48.5781 59.3281 45.0312 62.0625
Q41.5 64.7969 34.2812 64.7969
z

M9.8125 72.9062
L35.0156 72.9062
Q46.2969 72.9062 52.3906 68.2188
Q58.5 63.5312 58.5 54.8906
Q58.5 48.1875 55.375 44.2344
Q52.25 40.2812 46.1875 39.3125
Q53.4688 37.75 57.5 32.7812
Q61.5312 27.8281 61.5312 20.4062
Q61.5312 10.6406 54.8906 5.3125
Q48.25 0 35.9844 0
L9.8125 0
z
" id="BitstreamVeraSans-Roman-42"/>
      <path d="
M34.1875 63.1875
L20.7969 26.9062
L47.6094 26.9062
z

M28.6094 72.9062
L39.7969 72.9062
L67.5781 0
L57.3281 0
L50.6875 18.7031
L17.8281 18.7031
L11.1875 0
L0.78125 0
z
" id="BitstreamVeraSans-Roman-41"/>
      <path d="
M6.29688 72.9062
L16.8906 72.9062
L35.0156 45.7969
L53.2188 72.9062
L63.8125 72.9062
L40.375 37.8906
L65.375 0
L54.7812 0
L34.2812 31
L13.625 0
L2.98438 0
L29 38.9219
z
" id="BitstreamVeraSans-Roman-58"/>
      <path d="
M34.2812 27.4844
Q23.3906 27.4844 19.1875 25
Q14.9844 22.5156 14.9844 16.5
Q14.9844 11.7188 18.1406 8.90625
Q21.2969 6.10938 26.7031 6.10938
Q34.1875 6.10938 38.7031 11.4062
Q43.2188 16.7031 43.2188 25.4844
L43.2188 27.4844
z

M52.2031 31.2031
L52.2031 0
L43.2188 0
L43.2188 8.29688
Q40.1406 3.32812 35.5469 0.953125
Q30.9531 -1.42188 24.3125 -1.42188
Q15.9219 -1.42188 10.9531 3.29688
Q6 8.01562 6 15.9219
Q6 25.1406 12.1719 29.8281
Q18.3594 34.5156 30.6094 34.5156
L43.2188 34.5156
L43.2188 35.4062
Q43.2188 41.6094 39.1406 45
Q35.0625 48.3906 27.6875 48.3906
Q23 48.3906 18.5469 47.2656
Q14.1094 46.1406 10.0156 43.8906
L10.0156 52.2031
Q14.9375 54.1094 19.5781 55.0469
Q24.2188 56 28.6094 56
Q40.4844 56 46.3438 49.8438
Q52.2031 43.7031 52.2031 31.2031" id="BitstreamVeraSans-Roman-61"/>
      <path d="
M41.1094 46.2969
Q39.5938 47.1719 37.8125 47.5781
Q36.0312 48 33.8906 48
Q26.2656 48 22.1875 43.0469
Q18.1094 38.0938 18.1094 28.8125
L18.1094 0
L9.07812 0
L9.07812 54.6875
L18.1094 54.6875
L18.1094 46.1875
Q20.9531 51.1719 25.4844 53.5781
Q30.0312 56 36.5312 56
Q37.4531 56 38.5781 55.875
Q39.7031 55.7656 41.0625 55.5156
z
" id="BitstreamVeraSans-Roman-72"/>
      <path d="
M44.2812 53.0781
L44.2812 44.5781
Q40.4844 46.5312 36.375 47.5
Q32.2812 48.4844 27.875 48.4844
Q21.1875 48.4844 17.8438 46.4375
Q14.5 44.3906 14.5 40.2812
Q14.5 37.1562 16.8906 35.375
Q19.2812 33.5938 26.5156 31.9844
L29.5938 31.2969
Q39.1562 29.25 43.1875 25.5156
Q47.2188 21.7812 47.2188 15.0938
Q47.2188 7.46875 41.1875 3.01562
Q35.1562 -1.42188 24.6094 -1.42188
Q20.2188 -1.42188 15.4531 -0.5625
Q10.6875 0.296875 5.42188 2
L5.42188 11.2812
Q10.4062 8.6875 15.2344 7.39062
Q20.0625 6.10938 24.8125 6.10938
Q31.1562 6.10938 34.5625 8.28125
Q37.9844 10.4531 37.9844 14.4062
Q37.9844 18.0625 35.5156 20.0156
Q33.0625 21.9688 24.7031 23.7812
L21.5781 24.5156
Q13.2344 26.2656 9.51562 29.9062
Q5.8125 33.5469 5.8125 39.8906
Q5.8125 47.6094 11.2812 51.7969
Q16.75 56 26.8125 56
Q31.7812 56 36.1719 55.2656
Q40.5781 54.5469 44.2812 53.0781" id="BitstreamVeraSans-Roman-73"/>
      <path d="
M18.1094 8.20312
L18.1094 -20.7969
L9.07812 -20.7969
L9.07812 54.6875
L18.1094 54.6875
L18.1094 46.3906
Q20.9531 51.2656 25.2656 53.625
Q29.5938 56 35.5938 56
Q45.5625 56 51.7812 48.0938
Q58.0156 40.1875 58.0156 27.2969
Q58.0156 14.4062 51.7812 6.48438
Q45.5625 -1.42188 35.5938 -1.42188
Q29.5938 -1.42188 25.2656 0.953125
Q20.9531 3.32812 18.1094 8.20312
M48.6875 27.2969
Q48.6875 37.2031 44.6094 42.8438
Q40.5312 48.4844 33.4062 48.4844
Q26.2656 48.4844 22.1875 42.8438
Q18.1094 37.2031 18.1094 27.2969
Q18.1094 17.3906 22.1875 11.75
Q26.2656 6.10938 33.4062 6.10938
Q40.5312 6.10938 44.6094 11.75
Q48.6875 17.3906 48.6875 27.2969" id="BitstreamVeraSans-Roman-70"/>
      <path d="
M54.8906 33.0156
L54.8906 0
L45.9062 0
L45.9062 32.7188
Q45.9062 40.4844 42.875 44.3281
Q39.8438 48.1875 33.7969 48.1875
Q26.5156 48.1875 22.3125 43.5469
Q18.1094 38.9219 18.1094 30.9062
L18.1094 0
L9.07812 0
L9.07812 75.9844
L18.1094 75.9844
L18.1094 46.1875
Q21.3438 51.125 25.7031 53.5625
Q30.0781 56 35.7969 56
Q45.2188 56 50.0469 50.1719
Q54.8906 44.3438 54.8906 33.0156" id="BitstreamVeraSans-Roman-68"/>
     </defs>
     <g transform="translate(172.346875 278.2765625)scale(0.1 -0.1)">
      <use xlink:href="#BitstreamVeraSans-Roman-53"/>
      <use x="63.4765625" xlink:href="#BitstreamVeraSans-Roman-70"/>
      <use x="126.953125" xlink:href="#BitstreamVeraSans-Roman-4d"/>
      <use x="213.232421875" xlink:href="#BitstreamVeraSans-Roman-41"/>
      <use x="281.640625" xlink:href="#BitstreamVeraSans-Roman-58"/>
      <use x="350.146484375" xlink:href="#BitstreamVeraSans-Roman-34"/>
      <use x="413.76953125" xlink:href="#BitstreamVeraSans-Roman-5f"/>
      <use x="463.76953125" xlink:href="#BitstreamVeraSans-Roman-42"/>
      <use x="532.373046875" xlink:href="#BitstreamVeraSans-Roman-68"/>
      <use x="595.751953125" xlink:href="#BitstreamVeraSans-Roman-28"/>
      <use x="634.765625" xlink:href="#BitstreamVeraSans-Roman-73"/>
      <use x="686.865234375" xlink:href="#BitstreamVeraSans-Roman-29"/>
      <use x="725.87890625" xlink:href="#BitstreamVeraSans-Roman-20"/>
      <use x="757.666015625" xlink:href="#BitstreamVeraSans-Roman-72"/>
      <use x="798.779296875" xlink:href="#BitstreamVeraSans-Roman-61"/>
      <use x="860.05859375" xlink:href="#BitstreamVeraSans-Roman-6e"/>
      <use x="923.4375" xlink:href="#BitstreamVeraSans-Roman-6b"/>
     </g>
    </g>
   </g>
   <g id="matplotlib.axis_2">
    <g id="ytick_1">
     <g id="line2d_15">
      <defs>
       <path d="
M0 0
L4 0" id="m728421d6d4" style="stroke:#000000;stroke-width:0.5;"/>
      </defs>
      <g>
       <use style="stroke:#000000;stroke-width:0.5;" x="54.0" xlink:href="#m728421d6d4" y="252.0"/>
      </g>
     </g>
     <g id="line2d_16">
      <defs>
       <path d="
M0 0
L-4 0" id="mcb0005524f" style="stroke:#000000;stroke-width:0.5;"/>
      </defs>
      <g>
       <use style="stroke:#000000;stroke-width:0.5;" x="388.8" xlink:href="#mcb0005524f" y="252.0"/>
      </g>
     </g>
     <g id="text_9">
      <!-- 4.0 -->
      <defs>
       <path d="
M10.6875 12.4062
L21 12.4062
L21 0
L10.6875 0
z
" id="BitstreamVeraSans-Roman-2e"/>
      </defs>
      <g transform="translate(35.25 254.759375)scale(0.1 -0.1)">
       <use xlink:href="#BitstreamVeraSans-Roman-34"/>
       <use x="63.623046875" xlink:href="#BitstreamVeraSans-Roman-2e"/>
       <use x="95.41015625" xlink:href="#BitstreamVeraSans-Roman-30"/>
      </g>
     </g>
    </g>
    <g id="ytick_2">
     <g id="line2d_17">
      <g>
       <use style="stroke:#000000;stroke-width:0.5;" x="54.0" xlink:href="#m728421d6d4" y="224.780487805"/>
      </g>
     </g>
     <g id="line2d_18">
      <g>
       <use style="stroke:#000000;stroke-width:0.5;" x="388.8" xlink:href="#mcb0005524f" y="224.780487805"/>
      </g>
     </g>
     <g id="text_10">
      <!-- 4.5 -->
      <g transform="translate(35.459375 227.539862805)scale(0.1 -0.1)">
       <use xlink:href="#BitstreamVeraSans-Roman-34"/>
       <use x="63.623046875" xlink:href="#BitstreamVeraSans-Roman-2e"/>
       <use x="95.41015625" xlink:href="#BitstreamVeraSans-Roman-35"/>
      </g>
     </g>
    </g>
    <g id="ytick_3">
     <g id="line2d_19">
      <g>
       <use style="stroke:#000000;stroke-width:0.5;" x="54.0" xlink:href="#m728421d6d4" y="197.56097561"/>
      </g>
     </g>
     <g id="line2d_20">
      <g>
       <use style="stroke:#000000;stroke-width:0.5;" x="388.8" xlink:href="#mcb0005524f" y="197.56097561"/>
      </g>
     </g>
     <g id="text_11">
      <!-- 5.0 -->
      <g transform="translate(35.5328125 200.32035061)scale(0.1 -0.1)">
       <use xlink:href="#BitstreamVeraSans-Roman-35"/>
       <use x="63.623046875" xlink:href="#BitstreamVeraSans-Roman-2e"/>
       <use x="95.41015625" xlink:href="#BitstreamVeraSans-Roman-30"/>
      </g>
     </g>
    </g>
    <g id="ytick_4">
     <g id="line2d_21">
      <g>
       <use style="stroke:#000000;stroke-width:0.5;" x="54.0" xlink:href="#m728421d6d4" y="170.341463415"/>
      </g>
     </g>
     <g id="line2d_22">
      <g>
       <use style="stroke:#000000;stroke-width:0.5;" x="388.8" xlink:href="#mcb0005524f" y="170.341463415"/>
      </g>
     </g>
     <g id="text_12">
      <!-- 5.5 -->
      <g transform="translate(35.7421875 173.100838415)scale(0.1 -0.1)">
       <use xlink:href="#BitstreamVeraSans-Roman-35"/>
       <use x="63.623046875" xlink:href="#BitstreamVeraSans-Roman-2e"/>
       <use x="95.41015625" xlink:href="#BitstreamVeraSans-Roman-35"/>
      </g>
     </g>
    </g>
    <g id="ytick_5">
     <g id="line2d_23">
      <g>
       <use style="stroke:#000000;stroke-width:0.5;" x="54.0" xlink:href="#m728421d6d4" y="143.12195122"/>
      </g>
     </g>
     <g id="line2d_24">
      <g>
       <use style="stroke:#000000;stroke-width:0.5;" x="388.8" xlink:href="#mcb0005524f" y="143.12195122"/>
      </g>
     </g>
     <g id="text_13">
      <!-- 6.0 -->
      <g transform="translate(35.459375 145.88132622)scale(0.1 -0.1)">
       <use xlink:href="#BitstreamVeraSans-Roman-36"/>
       <use x="63.623046875" xlink:href="#BitstreamVeraSans-Roman-2e"/>
       <use x="95.41015625" xlink:href="#BitstreamVeraSans-Roman-30"/>
      </g>
     </g>
    </g>
    <g id="ytick_6">
     <g id="line2d_25">
      <g>
       <use style="stroke:#000000;stroke-width:0.5;" x="54.0" xlink:href="#m728421d6d4" y="115.902439024"/>
      </g>
     </g>
     <g id="line2d_26">
      <g>
       <use style="stroke:#000000;stroke-width:0.5;" x="388.8" xlink:href="#mcb0005524f" y="115.902439024"/>
      </g>
     </g>
     <g id="text_14">
      <!-- 6.5 -->
      <g transform="translate(35.66875 118.661814024)scale(0.1 -0.1)">
       <use xlink:href="#BitstreamVeraSans-Roman-36"/>
       <use x="63.623046875" xlink:href="#BitstreamVeraSans-Roman-2e"/>
       <use x="95.41015625" xlink:href="#BitstreamVeraSans-Roman-35"/>
      </g>
     </g>
    </g>
    <g id="ytick_7">
     <g id="line2d_27">
      <g>
       <use style="stroke:#000000;stroke-width:0.5;" x="54.0" xlink:href="#m728421d6d4" y="88.6829268293"/>
      </g>
     </g>
     <g id="line2d_28">
      <g>
       <use style="stroke:#000000;stroke-width:0.5;" x="388.8" xlink:href="#mcb0005524f" y="88.6829268293"/>
      </g>
     </g>
     <g id="text_15">
      <!-- 7.0 -->
      <defs>
       <path d="
M8.20312 72.9062
L55.0781 72.9062
L55.0781 68.7031
L28.6094 0
L18.3125 0
L43.2188 64.5938
L8.20312 64.5938
z
" id="BitstreamVeraSans-Roman-37"/>
      </defs>
      <g transform="translate(35.58125 91.4423018293)scale(0.1 -0.1)">
       <use xlink:href="#BitstreamVeraSans-Roman-37"/>
       <use x="63.623046875" xlink:href="#BitstreamVeraSans-Roman-2e"/>
       <use x="95.41015625" xlink:href="#BitstreamVeraSans-Roman-30"/>
      </g>
     </g>
    </g>
    <g id="ytick_8">
     <g id="line2d_29">
      <g>
       <use style="stroke:#000000;stroke-width:0.5;" x="54.0" xlink:href="#m728421d6d4" y="61.4634146341"/>
      </g>
     </g>
     <g id="line2d_30">
      <g>
       <use style="stroke:#000000;stroke-width:0.5;" x="388.8" xlink:href="#mcb0005524f" y="61.4634146341"/>
      </g>
     </g>
     <g id="text_16">
      <!-- 7.5 -->
      <g transform="translate(35.790625 64.2227896341)scale(0.1 -0.1)">
       <use xlink:href="#BitstreamVeraSans-Roman-37"/>
       <use x="63.623046875" xlink:href="#BitstreamVeraSans-Roman-2e"/>
       <use x="95.41015625" xlink:href="#BitstreamVeraSans-Roman-35"/>
      </g>
     </g>
    </g>
    <g id="ytick_9">
     <g id="line2d_31">
      <g>
       <use style="stroke:#000000;stroke-width:0.5;" x="54.0" xlink:href="#m728421d6d4" y="34.243902439"/>
      </g>
     </g>
     <g id="line2d_32">
      <g>
       <use style="stroke:#000000;stroke-width:0.5;" x="388.8" xlink:href="#mcb0005524f" y="34.243902439"/>
      </g>
     </g>
     <g id="text_17">
      <!-- 8.0 -->
      <defs>
       <path d="
M31.7812 34.625
Q24.75 34.625 20.7188 30.8594
Q16.7031 27.0938 16.7031 20.5156
Q16.7031 13.9219 20.7188 10.1562
Q24.75 6.39062 31.7812 6.39062
Q38.8125 6.39062 42.8594 10.1719
Q46.9219 13.9688 46.9219 20.5156
Q46.9219 27.0938 42.8906 30.8594
Q38.875 34.625 31.7812 34.625
M21.9219 38.8125
Q15.5781 40.375 12.0312 44.7188
Q8.5 49.0781 8.5 55.3281
Q8.5 64.0625 14.7188 69.1406
Q20.9531 74.2188 31.7812 74.2188
Q42.6719 74.2188 48.875 69.1406
Q55.0781 64.0625 55.0781 55.3281
Q55.0781 49.0781 51.5312 44.7188
Q48 40.375 41.7031 38.8125
Q48.8281 37.1562 52.7969 32.3125
Q56.7812 27.4844 56.7812 20.5156
Q56.7812 9.90625 50.3125 4.23438
Q43.8438 -1.42188 31.7812 -1.42188
Q19.7344 -1.42188 13.25 4.23438
Q6.78125 9.90625 6.78125 20.5156
Q6.78125 27.4844 10.7812 32.3125
Q14.7969 37.1562 21.9219 38.8125
M18.3125 54.3906
Q18.3125 48.7344 21.8438 45.5625
Q25.3906 42.3906 31.7812 42.3906
Q38.1406 42.3906 41.7188 45.5625
Q45.3125 48.7344 45.3125 54.3906
Q45.3125 60.0625 41.7188 63.2344
Q38.1406 66.4062 31.7812 66.4062
Q25.3906 66.4062 21.8438 63.2344
Q18.3125 60.0625 18.3125 54.3906" id="BitstreamVeraSans-Roman-38"/>
      </defs>
      <g transform="translate(35.4390625 37.003277439)scale(0.1 -0.1)">
       <use xlink:href="#BitstreamVeraSans-Roman-38"/>
       <use x="63.623046875" xlink:href="#BitstreamVeraSans-Roman-2e"/>
       <use x="95.41015625" xlink:href="#BitstreamVeraSans-Roman-30"/>
      </g>
     </g>
    </g>
    <g id="text_18">
     <!-- SpMAX4_Bh(s) -->
     <g transform="translate(27.8921875 175.93515625)rotate(-90.0)scale(0.1 -0.1)">
      <use xlink:href="#BitstreamVeraSans-Roman-53"/>
      <use x="63.4765625" xlink:href="#BitstreamVeraSans-Roman-70"/>
      <use x="126.953125" xlink:href="#BitstreamVeraSans-Roman-4d"/>
      <use x="213.232421875" xlink:href="#BitstreamVeraSans-Roman-41"/>
      <use x="281.640625" xlink:href="#BitstreamVeraSans-Roman-58"/>
      <use x="350.146484375" xlink:href="#BitstreamVeraSans-Roman-34"/>
      <use x="413.76953125" xlink:href="#BitstreamVeraSans-Roman-5f"/>
      <use x="463.76953125" xlink:href="#BitstreamVeraSans-Roman-42"/>
      <use x="532.373046875" xlink:href="#BitstreamVeraSans-Roman-68"/>
      <use x="595.751953125" xlink:href="#BitstreamVeraSans-Roman-28"/>
      <use x="634.765625" xlink:href="#BitstreamVeraSans-Roman-73"/>
      <use x="686.865234375" xlink:href="#BitstreamVeraSans-Roman-29"/>
     </g>
    </g>
   </g>
  </g>
 </g>
 <defs>
  <clipPath id="p124b8dd147">
   <rect height="223.2" width="334.8" x="54.0" y="28.8"/>
  </clipPath>
 </defs>
</svg>
