<?xml version="1.0" encoding="utf-8" standalone="no"?>
<!DOCTYPE svg PUBLIC "-//W3C//DTD SVG 1.1//EN"
  "http://www.w3.org/Graphics/SVG/1.1/DTD/svg11.dtd">
<!-- Created with matplotlib (http://matplotlib.org/) -->
<svg height="288pt" version="1.1" viewBox="0 0 288 288" width="288pt" xmlns="http://www.w3.org/2000/svg" xmlns:xlink="http://www.w3.org/1999/xlink">
 <defs>
  <style type="text/css">
*{stroke-linecap:butt;stroke-linejoin:round;}
  </style>
 </defs>
 <g id="figure_1">
  <g id="patch_1">
   <path d="
M0 288
L288 288
L288 0
L0 0
z
" style="fill:#ffffff;"/>
  </g>
  <g id="axes_1">
   <g id="patch_2">
    <path d="
M36 252
L259.2 252
L259.2 28.8
L36 28.8
z
" style="fill:#ffffff;"/>
   </g>
   <g id="PathCollection_1">
    <defs>
     <path d="
M0 2.23607
C0.593012 2.23607 1.16182 2.00046 1.58114 1.58114
C2.00046 1.16182 2.23607 0.593012 2.23607 0
C2.23607 -0.593012 2.00046 -1.16182 1.58114 -1.58114
C1.16182 -2.00046 0.593012 -2.23607 0 -2.23607
C-0.593012 -2.23607 -1.16182 -2.00046 -1.58114 -1.58114
C-2.00046 -1.16182 -2.23607 -0.593012 -2.23607 0
C-2.23607 0.593012 -2.00046 1.16182 -1.58114 1.58114
C-1.16182 2.00046 -0.593012 2.23607 0 2.23607
z
" id="m892ea4c8d5" style="stroke:#000000;"/>
    </defs>
    <g clip-path="url(#p08154cb638)">
     <use style="fill:#0000ff;stroke:#000000;" x="41.4705882353" xlink:href="#m892ea4c8d5" y="233.4"/>
     <use style="fill:#0000ff;stroke:#000000;" x="41.9082352941" xlink:href="#m892ea4c8d5" y="233.4"/>
     <use style="fill:#0000ff;stroke:#000000;" x="44.3152941176" xlink:href="#m892ea4c8d5" y="233.4"/>
     <use style="fill:#0000ff;stroke:#000000;" x="46.9411764706" xlink:href="#m892ea4c8d5" y="233.4"/>
     <use style="fill:#0000ff;stroke:#000000;" x="47.16" xlink:href="#m892ea4c8d5" y="233.4"/>
     <use style="fill:#0000ff;stroke:#000000;" x="51.3176470588" xlink:href="#m892ea4c8d5" y="47.4"/>
     <use style="fill:#0000ff;stroke:#000000;" x="52.8494117647" xlink:href="#m892ea4c8d5" y="233.4"/>
     <use style="fill:#0000ff;stroke:#000000;" x="53.7247058824" xlink:href="#m892ea4c8d5" y="233.4"/>
     <use style="fill:#0000ff;stroke:#000000;" x="53.7247058824" xlink:href="#m892ea4c8d5" y="233.4"/>
     <use style="fill:#0000ff;stroke:#000000;" x="55.9129411765" xlink:href="#m892ea4c8d5" y="47.4"/>
     <use style="fill:#0000ff;stroke:#000000;" x="56.5694117647" xlink:href="#m892ea4c8d5" y="233.4"/>
     <use style="fill:#0000ff;stroke:#000000;" x="57.2258823529" xlink:href="#m892ea4c8d5" y="233.4"/>
     <use style="fill:#0000ff;stroke:#000000;" x="57.8823529412" xlink:href="#m892ea4c8d5" y="233.4"/>
     <use style="fill:#0000ff;stroke:#000000;" x="60.0705882353" xlink:href="#m892ea4c8d5" y="233.4"/>
     <use style="fill:#0000ff;stroke:#000000;" x="60.7270588235" xlink:href="#m892ea4c8d5" y="47.4"/>
     <use style="fill:#0000ff;stroke:#000000;" x="61.8211764706" xlink:href="#m892ea4c8d5" y="47.4"/>
     <use style="fill:#0000ff;stroke:#000000;" x="62.4776470588" xlink:href="#m892ea4c8d5" y="47.4"/>
     <use style="fill:#0000ff;stroke:#000000;" x="62.9152941176" xlink:href="#m892ea4c8d5" y="233.4"/>
     <use style="fill:#0000ff;stroke:#000000;" x="63.3529411765" xlink:href="#m892ea4c8d5" y="233.4"/>
     <use style="fill:#0000ff;stroke:#000000;" x="64.0094117647" xlink:href="#m892ea4c8d5" y="47.4"/>
     <use style="fill:#0000ff;stroke:#000000;" x="64.4470588235" xlink:href="#m892ea4c8d5" y="47.4"/>
     <use style="fill:#0000ff;stroke:#000000;" x="65.1035294118" xlink:href="#m892ea4c8d5" y="233.4"/>
     <use style="fill:#0000ff;stroke:#000000;" x="66.4164705882" xlink:href="#m892ea4c8d5" y="233.4"/>
     <use style="fill:#0000ff;stroke:#000000;" x="71.6682352941" xlink:href="#m892ea4c8d5" y="47.4"/>
     <use style="fill:#0000ff;stroke:#000000;" x="72.9811764706" xlink:href="#m892ea4c8d5" y="233.4"/>
     <use style="fill:#0000ff;stroke:#000000;" x="75.3882352941" xlink:href="#m892ea4c8d5" y="47.4"/>
     <use style="fill:#0000ff;stroke:#000000;" x="75.6070588235" xlink:href="#m892ea4c8d5" y="233.4"/>
     <use style="fill:#0000ff;stroke:#000000;" x="77.7952941176" xlink:href="#m892ea4c8d5" y="47.4"/>
     <use style="fill:#0000ff;stroke:#000000;" x="78.4517647059" xlink:href="#m892ea4c8d5" y="47.4"/>
     <use style="fill:#0000ff;stroke:#000000;" x="79.1082352941" xlink:href="#m892ea4c8d5" y="233.4"/>
     <use style="fill:#0000ff;stroke:#000000;" x="79.1082352941" xlink:href="#m892ea4c8d5" y="233.4"/>
     <use style="fill:#0000ff;stroke:#000000;" x="81.0776470588" xlink:href="#m892ea4c8d5" y="233.4"/>
     <use style="fill:#0000ff;stroke:#000000;" x="81.5152941176" xlink:href="#m892ea4c8d5" y="47.4"/>
     <use style="fill:#0000ff;stroke:#000000;" x="82.3905882353" xlink:href="#m892ea4c8d5" y="47.4"/>
     <use style="fill:#0000ff;stroke:#000000;" x="85.6729411765" xlink:href="#m892ea4c8d5" y="47.4"/>
     <use style="fill:#0000ff;stroke:#000000;" x="87.8611764706" xlink:href="#m892ea4c8d5" y="47.4"/>
     <use style="fill:#0000ff;stroke:#000000;" x="90.4870588235" xlink:href="#m892ea4c8d5" y="47.4"/>
     <use style="fill:#0000ff;stroke:#000000;" x="94.0276235294" xlink:href="#m892ea4c8d5" y="233.4"/>
     <use style="fill:#0000ff;stroke:#000000;" x="96.8329411765" xlink:href="#m892ea4c8d5" y="47.4"/>
     <use style="fill:#0000ff;stroke:#000000;" x="101.428235294" xlink:href="#m892ea4c8d5" y="47.4"/>
     <use style="fill:#0000ff;stroke:#000000;" x="102.741176471" xlink:href="#m892ea4c8d5" y="233.4"/>
     <use style="fill:#0000ff;stroke:#000000;" x="103.397647059" xlink:href="#m892ea4c8d5" y="233.4"/>
     <use style="fill:#0000ff;stroke:#000000;" x="107.336470588" xlink:href="#m892ea4c8d5" y="233.4"/>
     <use style="fill:#0000ff;stroke:#000000;" x="108.211764706" xlink:href="#m892ea4c8d5" y="233.4"/>
     <use style="fill:#0000ff;stroke:#000000;" x="109.478752941" xlink:href="#m892ea4c8d5" y="233.4"/>
     <use style="fill:#0000ff;stroke:#000000;" x="111.494117647" xlink:href="#m892ea4c8d5" y="47.4"/>
     <use style="fill:#0000ff;stroke:#000000;" x="112.369411765" xlink:href="#m892ea4c8d5" y="47.4"/>
     <use style="fill:#0000ff;stroke:#000000;" x="115.214117647" xlink:href="#m892ea4c8d5" y="47.4"/>
     <use style="fill:#0000ff;stroke:#000000;" x="118.058823529" xlink:href="#m892ea4c8d5" y="47.4"/>
     <use style="fill:#0000ff;stroke:#000000;" x="120.675952941" xlink:href="#m892ea4c8d5" y="233.4"/>
     <use style="fill:#0000ff;stroke:#000000;" x="121.032635294" xlink:href="#m892ea4c8d5" y="233.4"/>
     <use style="fill:#0000ff;stroke:#000000;" x="121.56" xlink:href="#m892ea4c8d5" y="47.4"/>
     <use style="fill:#0000ff;stroke:#000000;" x="125.936470588" xlink:href="#m892ea4c8d5" y="233.4"/>
     <use style="fill:#0000ff;stroke:#000000;" x="159.431788235" xlink:href="#m892ea4c8d5" y="233.4"/>
     <use style="fill:#0000ff;stroke:#000000;" x="172.011952941" xlink:href="#m892ea4c8d5" y="233.4"/>
     <use style="fill:#0000ff;stroke:#000000;" x="173.64" xlink:href="#m892ea4c8d5" y="47.4"/>
     <use style="fill:#0000ff;stroke:#000000;" x="187.425882353" xlink:href="#m892ea4c8d5" y="47.4"/>
     <use style="fill:#0000ff;stroke:#000000;" x="188.509058824" xlink:href="#m892ea4c8d5" y="47.4"/>
     <use style="fill:#0000ff;stroke:#000000;" x="195.303529412" xlink:href="#m892ea4c8d5" y="47.4"/>
     <use style="fill:#0000ff;stroke:#000000;" x="247.475435294" xlink:href="#m892ea4c8d5" y="233.4"/>
    </g>
   </g>
   <g id="line2d_1">
    <path clip-path="url(#p08154cb638)" d="
M41.4706 166.583
L41.9082 166.437
L44.3153 165.633
L46.9412 164.752
L47.16 164.678
L51.3176 163.272
L52.8494 162.751
L53.7247 162.453
L53.7247 162.453
L55.9129 161.705
L56.5694 161.48
L57.2259 161.255
L57.8824 161.03
L60.0706 160.276
L60.7271 160.05
L61.8212 159.672
L62.4776 159.445
L62.9153 159.293
L63.3529 159.141
L64.0094 158.914
L64.4471 158.762
L65.1035 158.533
L66.4165 158.077
L71.6682 156.24
L72.9812 155.779
L75.3882 154.932
L75.6071 154.855
L77.7953 154.082
L78.4518 153.85
L79.1082 153.617
L79.1082 153.617
L81.0776 152.919
L81.5153 152.764
L82.3906 152.453
L85.6729 151.285
L87.8612 150.504
L90.4871 149.565
L94.0276 148.297
L96.8329 147.289
L101.428 145.635
L102.741 145.162
L103.398 144.926
L107.336 143.505
L108.212 143.189
L109.479 142.731
L111.494 142.003
L112.369 141.687
L115.214 140.659
L118.059 139.631
L120.676 138.685
L121.033 138.556
L121.56 138.366
L125.936 136.786
L159.432 124.827
L172.012 120.447
L173.64 119.887
L187.426 115.207
L188.509 114.844
L195.304 112.591
L247.475 96.6093" style="fill:none;stroke:#ff0000;stroke-linecap:square;"/>
   </g>
   <g id="patch_3">
    <path d="
M36 28.8
L259.2 28.8" style="fill:none;stroke:#000000;stroke-linecap:square;stroke-linejoin:miter;"/>
   </g>
   <g id="patch_4">
    <path d="
M259.2 252
L259.2 28.8" style="fill:none;stroke:#000000;stroke-linecap:square;stroke-linejoin:miter;"/>
   </g>
   <g id="patch_5">
    <path d="
M36 252
L259.2 252" style="fill:none;stroke:#000000;stroke-linecap:square;stroke-linejoin:miter;"/>
   </g>
   <g id="patch_6">
    <path d="
M36 252
L36 28.8" style="fill:none;stroke:#000000;stroke-linecap:square;stroke-linejoin:miter;"/>
   </g>
   <g id="matplotlib.axis_1">
    <g id="xtick_1">
     <g id="line2d_2">
      <defs>
       <path d="
M0 0
L0 -4" id="m93b0483c22" style="stroke:#000000;stroke-width:0.5;"/>
      </defs>
      <g>
       <use style="stroke:#000000;stroke-width:0.5;" x="40.3764705882" xlink:href="#m93b0483c22" y="252.0"/>
      </g>
     </g>
     <g id="line2d_3">
      <defs>
       <path d="
M0 0
L0 4" id="m741efc42ff" style="stroke:#000000;stroke-width:0.5;"/>
      </defs>
      <g>
       <use style="stroke:#000000;stroke-width:0.5;" x="40.3764705882" xlink:href="#m741efc42ff" y="28.8"/>
      </g>
     </g>
     <g id="text_1">
      <!-- 0 -->
      <defs>
       <path d="
M31.7812 66.4062
Q24.1719 66.4062 20.3281 58.9062
Q16.5 51.4219 16.5 36.375
Q16.5 21.3906 20.3281 13.8906
Q24.1719 6.39062 31.7812 6.39062
Q39.4531 6.39062 43.2812 13.8906
Q47.125 21.3906 47.125 36.375
Q47.125 51.4219 43.2812 58.9062
Q39.4531 66.4062 31.7812 66.4062
M31.7812 74.2188
Q44.0469 74.2188 50.5156 64.5156
Q56.9844 54.8281 56.9844 36.375
Q56.9844 17.9688 50.5156 8.26562
Q44.0469 -1.42188 31.7812 -1.42188
Q19.5312 -1.42188 13.0625 8.26562
Q6.59375 17.9688 6.59375 36.375
Q6.59375 54.8281 13.0625 64.5156
Q19.5312 74.2188 31.7812 74.2188" id="BitstreamVeraSans-Roman-30"/>
      </defs>
      <g transform="translate(37.3530330882 265.118125)scale(0.12 -0.12)">
       <use xlink:href="#BitstreamVeraSans-Roman-30"/>
      </g>
     </g>
    </g>
    <g id="xtick_2">
     <g id="line2d_4">
      <g>
       <use style="stroke:#000000;stroke-width:0.5;" x="84.1411764706" xlink:href="#m93b0483c22" y="252.0"/>
      </g>
     </g>
     <g id="line2d_5">
      <g>
       <use style="stroke:#000000;stroke-width:0.5;" x="84.1411764706" xlink:href="#m741efc42ff" y="28.8"/>
      </g>
     </g>
     <g id="text_2">
      <!-- 20 -->
      <defs>
       <path d="
M19.1875 8.29688
L53.6094 8.29688
L53.6094 0
L7.32812 0
L7.32812 8.29688
Q12.9375 14.1094 22.625 23.8906
Q32.3281 33.6875 34.8125 36.5312
Q39.5469 41.8438 41.4219 45.5312
Q43.3125 49.2188 43.3125 52.7812
Q43.3125 58.5938 39.2344 62.25
Q35.1562 65.9219 28.6094 65.9219
Q23.9688 65.9219 18.8125 64.3125
Q13.6719 62.7031 7.8125 59.4219
L7.8125 69.3906
Q13.7656 71.7812 18.9375 73
Q24.125 74.2188 28.4219 74.2188
Q39.75 74.2188 46.4844 68.5469
Q53.2188 62.8906 53.2188 53.4219
Q53.2188 48.9219 51.5312 44.8906
Q49.8594 40.875 45.4062 35.4062
Q44.1875 33.9844 37.6406 27.2188
Q31.1094 20.4531 19.1875 8.29688" id="BitstreamVeraSans-Roman-32"/>
      </defs>
      <g transform="translate(77.3443014706 265.118125)scale(0.12 -0.12)">
       <use xlink:href="#BitstreamVeraSans-Roman-32"/>
       <use x="63.623046875" xlink:href="#BitstreamVeraSans-Roman-30"/>
      </g>
     </g>
    </g>
    <g id="xtick_3">
     <g id="line2d_6">
      <g>
       <use style="stroke:#000000;stroke-width:0.5;" x="127.905882353" xlink:href="#m93b0483c22" y="252.0"/>
      </g>
     </g>
     <g id="line2d_7">
      <g>
       <use style="stroke:#000000;stroke-width:0.5;" x="127.905882353" xlink:href="#m741efc42ff" y="28.8"/>
      </g>
     </g>
     <g id="text_3">
      <!-- 40 -->
      <defs>
       <path d="
M37.7969 64.3125
L12.8906 25.3906
L37.7969 25.3906
z

M35.2031 72.9062
L47.6094 72.9062
L47.6094 25.3906
L58.0156 25.3906
L58.0156 17.1875
L47.6094 17.1875
L47.6094 0
L37.7969 0
L37.7969 17.1875
L4.89062 17.1875
L4.89062 26.7031
z
" id="BitstreamVeraSans-Roman-34"/>
      </defs>
      <g transform="translate(120.962757353 265.118125)scale(0.12 -0.12)">
       <use xlink:href="#BitstreamVeraSans-Roman-34"/>
       <use x="63.623046875" xlink:href="#BitstreamVeraSans-Roman-30"/>
      </g>
     </g>
    </g>
    <g id="xtick_4">
     <g id="line2d_8">
      <g>
       <use style="stroke:#000000;stroke-width:0.5;" x="171.670588235" xlink:href="#m93b0483c22" y="252.0"/>
      </g>
     </g>
     <g id="line2d_9">
      <g>
       <use style="stroke:#000000;stroke-width:0.5;" x="171.670588235" xlink:href="#m741efc42ff" y="28.8"/>
      </g>
     </g>
     <g id="text_4">
      <!-- 60 -->
      <defs>
       <path d="
M33.0156 40.375
Q26.375 40.375 22.4844 35.8281
Q18.6094 31.2969 18.6094 23.3906
Q18.6094 15.5312 22.4844 10.9531
Q26.375 6.39062 33.0156 6.39062
Q39.6562 6.39062 43.5312 10.9531
Q47.4062 15.5312 47.4062 23.3906
Q47.4062 31.2969 43.5312 35.8281
Q39.6562 40.375 33.0156 40.375
M52.5938 71.2969
L52.5938 62.3125
Q48.875 64.0625 45.0938 64.9844
Q41.3125 65.9219 37.5938 65.9219
Q27.8281 65.9219 22.6719 59.3281
Q17.5312 52.7344 16.7969 39.4062
Q19.6719 43.6562 24.0156 45.9219
Q28.375 48.1875 33.5938 48.1875
Q44.5781 48.1875 50.9531 41.5156
Q57.3281 34.8594 57.3281 23.3906
Q57.3281 12.1562 50.6875 5.35938
Q44.0469 -1.42188 33.0156 -1.42188
Q20.3594 -1.42188 13.6719 8.26562
Q6.98438 17.9688 6.98438 36.375
Q6.98438 53.6562 15.1875 63.9375
Q23.3906 74.2188 37.2031 74.2188
Q40.9219 74.2188 44.7031 73.4844
Q48.4844 72.75 52.5938 71.2969" id="BitstreamVeraSans-Roman-36"/>
      </defs>
      <g transform="translate(164.853088235 265.118125)scale(0.12 -0.12)">
       <use xlink:href="#BitstreamVeraSans-Roman-36"/>
       <use x="63.623046875" xlink:href="#BitstreamVeraSans-Roman-30"/>
      </g>
     </g>
    </g>
    <g id="xtick_5">
     <g id="line2d_10">
      <g>
       <use style="stroke:#000000;stroke-width:0.5;" x="215.435294118" xlink:href="#m93b0483c22" y="252.0"/>
      </g>
     </g>
     <g id="line2d_11">
      <g>
       <use style="stroke:#000000;stroke-width:0.5;" x="215.435294118" xlink:href="#m741efc42ff" y="28.8"/>
      </g>
     </g>
     <g id="text_5">
      <!-- 80 -->
      <defs>
       <path d="
M31.7812 34.625
Q24.75 34.625 20.7188 30.8594
Q16.7031 27.0938 16.7031 20.5156
Q16.7031 13.9219 20.7188 10.1562
Q24.75 6.39062 31.7812 6.39062
Q38.8125 6.39062 42.8594 10.1719
Q46.9219 13.9688 46.9219 20.5156
Q46.9219 27.0938 42.8906 30.8594
Q38.875 34.625 31.7812 34.625
M21.9219 38.8125
Q15.5781 40.375 12.0312 44.7188
Q8.5 49.0781 8.5 55.3281
Q8.5 64.0625 14.7188 69.1406
Q20.9531 74.2188 31.7812 74.2188
Q42.6719 74.2188 48.875 69.1406
Q55.0781 64.0625 55.0781 55.3281
Q55.0781 49.0781 51.5312 44.7188
Q48 40.375 41.7031 38.8125
Q48.8281 37.1562 52.7969 32.3125
Q56.7812 27.4844 56.7812 20.5156
Q56.7812 9.90625 50.3125 4.23438
Q43.8438 -1.42188 31.7812 -1.42188
Q19.7344 -1.42188 13.25 4.23438
Q6.78125 9.90625 6.78125 20.5156
Q6.78125 27.4844 10.7812 32.3125
Q14.7969 37.1562 21.9219 38.8125
M18.3125 54.3906
Q18.3125 48.7344 21.8438 45.5625
Q25.3906 42.3906 31.7812 42.3906
Q38.1406 42.3906 41.7188 45.5625
Q45.3125 48.7344 45.3125 54.3906
Q45.3125 60.0625 41.7188 63.2344
Q38.1406 66.4062 31.7812 66.4062
Q25.3906 66.4062 21.8438 63.2344
Q18.3125 60.0625 18.3125 54.3906" id="BitstreamVeraSans-Roman-38"/>
      </defs>
      <g transform="translate(208.605606618 265.118125)scale(0.12 -0.12)">
       <use xlink:href="#BitstreamVeraSans-Roman-38"/>
       <use x="63.623046875" xlink:href="#BitstreamVeraSans-Roman-30"/>
      </g>
     </g>
    </g>
    <g id="xtick_6">
     <g id="line2d_12">
      <g>
       <use style="stroke:#000000;stroke-width:0.5;" x="259.2" xlink:href="#m93b0483c22" y="252.0"/>
      </g>
     </g>
     <g id="line2d_13">
      <g>
       <use style="stroke:#000000;stroke-width:0.5;" x="259.2" xlink:href="#m741efc42ff" y="28.8"/>
      </g>
     </g>
     <g id="text_6">
      <!-- 100 -->
      <defs>
       <path d="
M12.4062 8.29688
L28.5156 8.29688
L28.5156 63.9219
L10.9844 60.4062
L10.9844 69.3906
L28.4219 72.9062
L38.2812 72.9062
L38.2812 8.29688
L54.3906 8.29688
L54.3906 0
L12.4062 0
z
" id="BitstreamVeraSans-Roman-31"/>
      </defs>
      <g transform="translate(248.805 265.118125)scale(0.12 -0.12)">
       <use xlink:href="#BitstreamVeraSans-Roman-31"/>
       <use x="63.623046875" xlink:href="#BitstreamVeraSans-Roman-30"/>
       <use x="127.24609375" xlink:href="#BitstreamVeraSans-Roman-30"/>
      </g>
     </g>
    </g>
    <g id="text_7">
     <!-- ALOGP2 -->
     <defs>
      <path d="
M59.5156 10.4062
L59.5156 29.9844
L43.4062 29.9844
L43.4062 38.0938
L69.2812 38.0938
L69.2812 6.78125
Q63.5781 2.73438 56.6875 0.65625
Q49.8125 -1.42188 42 -1.42188
Q24.9062 -1.42188 15.25 8.5625
Q5.60938 18.5625 5.60938 36.375
Q5.60938 54.25 15.25 64.2344
Q24.9062 74.2188 42 74.2188
Q49.125 74.2188 55.5469 72.4531
Q61.9688 70.7031 67.3906 67.2812
L67.3906 56.7812
Q61.9219 61.4219 55.7656 63.7656
Q49.6094 66.1094 42.8281 66.1094
Q29.4375 66.1094 22.7188 58.6406
Q16.0156 51.1719 16.0156 36.375
Q16.0156 21.625 22.7188 14.1562
Q29.4375 6.6875 42.8281 6.6875
Q48.0469 6.6875 52.1406 7.59375
Q56.25 8.5 59.5156 10.4062" id="BitstreamVeraSans-Roman-47"/>
      <path d="
M39.4062 66.2188
Q28.6562 66.2188 22.3281 58.2031
Q16.0156 50.2031 16.0156 36.375
Q16.0156 22.6094 22.3281 14.5938
Q28.6562 6.59375 39.4062 6.59375
Q50.1406 6.59375 56.4219 14.5938
Q62.7031 22.6094 62.7031 36.375
Q62.7031 50.2031 56.4219 58.2031
Q50.1406 66.2188 39.4062 66.2188
M39.4062 74.2188
Q54.7344 74.2188 63.9062 63.9375
Q73.0938 53.6562 73.0938 36.375
Q73.0938 19.1406 63.9062 8.85938
Q54.7344 -1.42188 39.4062 -1.42188
Q24.0312 -1.42188 14.8125 8.82812
Q5.60938 19.0938 5.60938 36.375
Q5.60938 53.6562 14.8125 63.9375
Q24.0312 74.2188 39.4062 74.2188" id="BitstreamVeraSans-Roman-4f"/>
      <path d="
M19.6719 64.7969
L19.6719 37.4062
L32.0781 37.4062
Q38.9688 37.4062 42.7188 40.9688
Q46.4844 44.5312 46.4844 51.125
Q46.4844 57.6719 42.7188 61.2344
Q38.9688 64.7969 32.0781 64.7969
z

M9.8125 72.9062
L32.0781 72.9062
Q44.3438 72.9062 50.6094 67.3594
Q56.8906 61.8125 56.8906 51.125
Q56.8906 40.3281 50.6094 34.8125
Q44.3438 29.2969 32.0781 29.2969
L19.6719 29.2969
L19.6719 0
L9.8125 0
z
" id="BitstreamVeraSans-Roman-50"/>
      <path d="
M9.8125 72.9062
L19.6719 72.9062
L19.6719 8.29688
L55.1719 8.29688
L55.1719 0
L9.8125 0
z
" id="BitstreamVeraSans-Roman-4c"/>
      <path d="
M34.1875 63.1875
L20.7969 26.9062
L47.6094 26.9062
z

M28.6094 72.9062
L39.7969 72.9062
L67.5781 0
L57.3281 0
L50.6875 18.7031
L17.8281 18.7031
L11.1875 0
L0.78125 0
z
" id="BitstreamVeraSans-Roman-41"/>
     </defs>
     <g transform="translate(124.2103125 281.731875)scale(0.12 -0.12)">
      <use xlink:href="#BitstreamVeraSans-Roman-41"/>
      <use x="68.408203125" xlink:href="#BitstreamVeraSans-Roman-4c"/>
      <use x="120.49609375" xlink:href="#BitstreamVeraSans-Roman-4f"/>
      <use x="199.20703125" xlink:href="#BitstreamVeraSans-Roman-47"/>
      <use x="276.697265625" xlink:href="#BitstreamVeraSans-Roman-50"/>
      <use x="337.0" xlink:href="#BitstreamVeraSans-Roman-32"/>
     </g>
    </g>
   </g>
   <g id="matplotlib.axis_2">
    <g id="ytick_1">
     <g id="line2d_14">
      <defs>
       <path d="
M0 0
L4 0" id="m728421d6d4" style="stroke:#000000;stroke-width:0.5;"/>
      </defs>
      <g>
       <use style="stroke:#000000;stroke-width:0.5;" x="36.0" xlink:href="#m728421d6d4" y="233.4"/>
      </g>
     </g>
     <g id="line2d_15">
      <defs>
       <path d="
M0 0
L-4 0" id="mcb0005524f" style="stroke:#000000;stroke-width:0.5;"/>
      </defs>
      <g>
       <use style="stroke:#000000;stroke-width:0.5;" x="259.2" xlink:href="#mcb0005524f" y="233.4"/>
      </g>
     </g>
     <g id="text_8">
      <!-- 0.0 -->
      <defs>
       <path d="
M10.6875 12.4062
L21 12.4062
L21 0
L10.6875 0
z
" id="BitstreamVeraSans-Roman-2e"/>
      </defs>
      <g transform="translate(14.504375 236.71125)scale(0.12 -0.12)">
       <use xlink:href="#BitstreamVeraSans-Roman-30"/>
       <use x="63.623046875" xlink:href="#BitstreamVeraSans-Roman-2e"/>
       <use x="95.41015625" xlink:href="#BitstreamVeraSans-Roman-30"/>
      </g>
     </g>
    </g>
    <g id="ytick_2">
     <g id="line2d_16">
      <g>
       <use style="stroke:#000000;stroke-width:0.5;" x="36.0" xlink:href="#m728421d6d4" y="196.2"/>
      </g>
     </g>
     <g id="line2d_17">
      <g>
       <use style="stroke:#000000;stroke-width:0.5;" x="259.2" xlink:href="#mcb0005524f" y="196.2"/>
      </g>
     </g>
     <g id="text_9">
      <!-- 0.2 -->
      <g transform="translate(14.909375 199.51125)scale(0.12 -0.12)">
       <use xlink:href="#BitstreamVeraSans-Roman-30"/>
       <use x="63.623046875" xlink:href="#BitstreamVeraSans-Roman-2e"/>
       <use x="95.41015625" xlink:href="#BitstreamVeraSans-Roman-32"/>
      </g>
     </g>
    </g>
    <g id="ytick_3">
     <g id="line2d_18">
      <g>
       <use style="stroke:#000000;stroke-width:0.5;" x="36.0" xlink:href="#m728421d6d4" y="159.0"/>
      </g>
     </g>
     <g id="line2d_19">
      <g>
       <use style="stroke:#000000;stroke-width:0.5;" x="259.2" xlink:href="#mcb0005524f" y="159.0"/>
      </g>
     </g>
     <g id="text_10">
      <!-- 0.4 -->
      <g transform="translate(14.380625 162.31125)scale(0.12 -0.12)">
       <use xlink:href="#BitstreamVeraSans-Roman-30"/>
       <use x="63.623046875" xlink:href="#BitstreamVeraSans-Roman-2e"/>
       <use x="95.41015625" xlink:href="#BitstreamVeraSans-Roman-34"/>
      </g>
     </g>
    </g>
    <g id="ytick_4">
     <g id="line2d_20">
      <g>
       <use style="stroke:#000000;stroke-width:0.5;" x="36.0" xlink:href="#m728421d6d4" y="121.8"/>
      </g>
     </g>
     <g id="line2d_21">
      <g>
       <use style="stroke:#000000;stroke-width:0.5;" x="259.2" xlink:href="#mcb0005524f" y="121.8"/>
      </g>
     </g>
     <g id="text_11">
      <!-- 0.6 -->
      <g transform="translate(14.463125 125.11125)scale(0.12 -0.12)">
       <use xlink:href="#BitstreamVeraSans-Roman-30"/>
       <use x="63.623046875" xlink:href="#BitstreamVeraSans-Roman-2e"/>
       <use x="95.41015625" xlink:href="#BitstreamVeraSans-Roman-36"/>
      </g>
     </g>
    </g>
    <g id="ytick_5">
     <g id="line2d_22">
      <g>
       <use style="stroke:#000000;stroke-width:0.5;" x="36.0" xlink:href="#m728421d6d4" y="84.6"/>
      </g>
     </g>
     <g id="line2d_23">
      <g>
       <use style="stroke:#000000;stroke-width:0.5;" x="259.2" xlink:href="#mcb0005524f" y="84.6"/>
      </g>
     </g>
     <g id="text_12">
      <!-- 0.8 -->
      <g transform="translate(14.52875 87.91125)scale(0.12 -0.12)">
       <use xlink:href="#BitstreamVeraSans-Roman-30"/>
       <use x="63.623046875" xlink:href="#BitstreamVeraSans-Roman-2e"/>
       <use x="95.41015625" xlink:href="#BitstreamVeraSans-Roman-38"/>
      </g>
     </g>
    </g>
    <g id="ytick_6">
     <g id="line2d_24">
      <g>
       <use style="stroke:#000000;stroke-width:0.5;" x="36.0" xlink:href="#m728421d6d4" y="47.4"/>
      </g>
     </g>
     <g id="line2d_25">
      <g>
       <use style="stroke:#000000;stroke-width:0.5;" x="259.2" xlink:href="#mcb0005524f" y="47.4"/>
      </g>
     </g>
     <g id="text_13">
      <!-- 1.0 -->
      <g transform="translate(15.03125 50.71125)scale(0.12 -0.12)">
       <use xlink:href="#BitstreamVeraSans-Roman-31"/>
       <use x="63.623046875" xlink:href="#BitstreamVeraSans-Roman-2e"/>
       <use x="95.41015625" xlink:href="#BitstreamVeraSans-Roman-30"/>
      </g>
     </g>
    </g>
    <g id="text_14">
     <!-- INP formation -->
     <defs>
      <path id="BitstreamVeraSans-Roman-20"/>
      <path d="
M9.8125 72.9062
L23.0938 72.9062
L55.4219 11.9219
L55.4219 72.9062
L64.9844 72.9062
L64.9844 0
L51.7031 0
L19.3906 60.9844
L19.3906 0
L9.8125 0
z
" id="BitstreamVeraSans-Roman-4e"/>
      <path d="
M54.8906 33.0156
L54.8906 0
L45.9062 0
L45.9062 32.7188
Q45.9062 40.4844 42.875 44.3281
Q39.8438 48.1875 33.7969 48.1875
Q26.5156 48.1875 22.3125 43.5469
Q18.1094 38.9219 18.1094 30.9062
L18.1094 0
L9.07812 0
L9.07812 54.6875
L18.1094 54.6875
L18.1094 46.1875
Q21.3438 51.125 25.7031 53.5625
Q30.0781 56 35.7969 56
Q45.2188 56 50.0469 50.1719
Q54.8906 44.3438 54.8906 33.0156" id="BitstreamVeraSans-Roman-6e"/>
      <path d="
M52 44.1875
Q55.375 50.25 60.0625 53.125
Q64.75 56 71.0938 56
Q79.6406 56 84.2812 50.0156
Q88.9219 44.0469 88.9219 33.0156
L88.9219 0
L79.8906 0
L79.8906 32.7188
Q79.8906 40.5781 77.0938 44.375
Q74.3125 48.1875 68.6094 48.1875
Q61.625 48.1875 57.5625 43.5469
Q53.5156 38.9219 53.5156 30.9062
L53.5156 0
L44.4844 0
L44.4844 32.7188
Q44.4844 40.625 41.7031 44.4062
Q38.9219 48.1875 33.1094 48.1875
Q26.2188 48.1875 22.1562 43.5312
Q18.1094 38.875 18.1094 30.9062
L18.1094 0
L9.07812 0
L9.07812 54.6875
L18.1094 54.6875
L18.1094 46.1875
Q21.1875 51.2188 25.4844 53.6094
Q29.7812 56 35.6875 56
Q41.6562 56 45.8281 52.9688
Q50 49.9531 52 44.1875" id="BitstreamVeraSans-Roman-6d"/>
      <path d="
M30.6094 48.3906
Q23.3906 48.3906 19.1875 42.75
Q14.9844 37.1094 14.9844 27.2969
Q14.9844 17.4844 19.1562 11.8438
Q23.3438 6.20312 30.6094 6.20312
Q37.7969 6.20312 41.9844 11.8594
Q46.1875 17.5312 46.1875 27.2969
Q46.1875 37.0156 41.9844 42.7031
Q37.7969 48.3906 30.6094 48.3906
M30.6094 56
Q42.3281 56 49.0156 48.375
Q55.7188 40.7656 55.7188 27.2969
Q55.7188 13.875 49.0156 6.21875
Q42.3281 -1.42188 30.6094 -1.42188
Q18.8438 -1.42188 12.1719 6.21875
Q5.51562 13.875 5.51562 27.2969
Q5.51562 40.7656 12.1719 48.375
Q18.8438 56 30.6094 56" id="BitstreamVeraSans-Roman-6f"/>
      <path d="
M9.42188 54.6875
L18.4062 54.6875
L18.4062 0
L9.42188 0
z

M9.42188 75.9844
L18.4062 75.9844
L18.4062 64.5938
L9.42188 64.5938
z
" id="BitstreamVeraSans-Roman-69"/>
      <path d="
M34.2812 27.4844
Q23.3906 27.4844 19.1875 25
Q14.9844 22.5156 14.9844 16.5
Q14.9844 11.7188 18.1406 8.90625
Q21.2969 6.10938 26.7031 6.10938
Q34.1875 6.10938 38.7031 11.4062
Q43.2188 16.7031 43.2188 25.4844
L43.2188 27.4844
z

M52.2031 31.2031
L52.2031 0
L43.2188 0
L43.2188 8.29688
Q40.1406 3.32812 35.5469 0.953125
Q30.9531 -1.42188 24.3125 -1.42188
Q15.9219 -1.42188 10.9531 3.29688
Q6 8.01562 6 15.9219
Q6 25.1406 12.1719 29.8281
Q18.3594 34.5156 30.6094 34.5156
L43.2188 34.5156
L43.2188 35.4062
Q43.2188 41.6094 39.1406 45
Q35.0625 48.3906 27.6875 48.3906
Q23 48.3906 18.5469 47.2656
Q14.1094 46.1406 10.0156 43.8906
L10.0156 52.2031
Q14.9375 54.1094 19.5781 55.0469
Q24.2188 56 28.6094 56
Q40.4844 56 46.3438 49.8438
Q52.2031 43.7031 52.2031 31.2031" id="BitstreamVeraSans-Roman-61"/>
      <path d="
M37.1094 75.9844
L37.1094 68.5
L28.5156 68.5
Q23.6875 68.5 21.7969 66.5469
Q19.9219 64.5938 19.9219 59.5156
L19.9219 54.6875
L34.7188 54.6875
L34.7188 47.7031
L19.9219 47.7031
L19.9219 0
L10.8906 0
L10.8906 47.7031
L2.29688 47.7031
L2.29688 54.6875
L10.8906 54.6875
L10.8906 58.5
Q10.8906 67.625 15.1406 71.7969
Q19.3906 75.9844 28.6094 75.9844
z
" id="BitstreamVeraSans-Roman-66"/>
      <path d="
M41.1094 46.2969
Q39.5938 47.1719 37.8125 47.5781
Q36.0312 48 33.8906 48
Q26.2656 48 22.1875 43.0469
Q18.1094 38.0938 18.1094 28.8125
L18.1094 0
L9.07812 0
L9.07812 54.6875
L18.1094 54.6875
L18.1094 46.1875
Q20.9531 51.1719 25.4844 53.5781
Q30.0312 56 36.5312 56
Q37.4531 56 38.5781 55.875
Q39.7031 55.7656 41.0625 55.5156
z
" id="BitstreamVeraSans-Roman-72"/>
      <path d="
M18.3125 70.2188
L18.3125 54.6875
L36.8125 54.6875
L36.8125 47.7031
L18.3125 47.7031
L18.3125 18.0156
Q18.3125 11.3281 20.1406 9.42188
Q21.9688 7.51562 27.5938 7.51562
L36.8125 7.51562
L36.8125 0
L27.5938 0
Q17.1875 0 13.2344 3.875
Q9.28125 7.76562 9.28125 18.0156
L9.28125 47.7031
L2.6875 47.7031
L2.6875 54.6875
L9.28125 54.6875
L9.28125 70.2188
z
" id="BitstreamVeraSans-Roman-74"/>
      <path d="
M9.8125 72.9062
L19.6719 72.9062
L19.6719 0
L9.8125 0
z
" id="BitstreamVeraSans-Roman-49"/>
     </defs>
     <g transform="translate(6.053125 194.31125)rotate(-90.0)scale(0.16 -0.16)">
      <use xlink:href="#BitstreamVeraSans-Roman-49"/>
      <use x="29.4921875" xlink:href="#BitstreamVeraSans-Roman-4e"/>
      <use x="104.296875" xlink:href="#BitstreamVeraSans-Roman-50"/>
      <use x="164.599609375" xlink:href="#BitstreamVeraSans-Roman-20"/>
      <use x="196.38671875" xlink:href="#BitstreamVeraSans-Roman-66"/>
      <use x="231.591796875" xlink:href="#BitstreamVeraSans-Roman-6f"/>
      <use x="292.7734375" xlink:href="#BitstreamVeraSans-Roman-72"/>
      <use x="332.13671875" xlink:href="#BitstreamVeraSans-Roman-6d"/>
      <use x="429.548828125" xlink:href="#BitstreamVeraSans-Roman-61"/>
      <use x="490.828125" xlink:href="#BitstreamVeraSans-Roman-74"/>
      <use x="530.037109375" xlink:href="#BitstreamVeraSans-Roman-69"/>
      <use x="557.8203125" xlink:href="#BitstreamVeraSans-Roman-6f"/>
      <use x="619.001953125" xlink:href="#BitstreamVeraSans-Roman-6e"/>
     </g>
    </g>
   </g>
  </g>
 </g>
 <defs>
  <clipPath id="p08154cb638">
   <rect height="223.2" width="223.2" x="36.0" y="28.8"/>
  </clipPath>
 </defs>
</svg>
